<?xml version="1.0" encoding="UTF-8" standalone="no"?>
<svg id="svg2" xmlns:rdf="http://www.w3.org/1999/02/22-rdf-syntax-ns#" xmlns="http://www.w3.org/2000/svg" height="141.32mm" width="787.44mm" version="1.1" xmlns:cc="http://creativecommons.org/ns#" xmlns:dc="http://purl.org/dc/elements/1.1/" viewBox="0 0 2790.1346 500.72331">
 <defs id="defs4">
  <marker id="StopS" refY="0" refX="0" orient="auto" overflow="visible">
   <path id="path4396" d="m0 5.65v-11.3" fill-rule="evenodd" transform="scale(.2)" stroke="#000" stroke-width="1pt"/>
  </marker>
  <marker id="Arrow2Lend-9" refY="0" refX="0" orient="auto" overflow="visible">
   <path id="path4242-87" stroke-linejoin="round" d="m8.7186 4.0337-10.926-4.0177 10.926-4.0177c-1.7455 2.3721-1.7354 5.6175-6e-7 8.0354z" fill-rule="evenodd" transform="matrix(-1.1,0,0,-1.1,-1.1,0)" stroke="#000" stroke-width=".625"/>
  </marker>
  <marker id="StopS-1" refY="0" refX="0" orient="auto" overflow="visible">
   <path id="path4396-5" d="m0 5.65v-11.3" fill-rule="evenodd" transform="scale(.2)" stroke="#000" stroke-width="1pt"/>
  </marker>
  <marker id="Arrow2Lend-9-5" refY="0" refX="0" orient="auto" overflow="visible">
   <path id="path4242-87-9" stroke-linejoin="round" d="m8.7186 4.0337-10.926-4.0177 10.926-4.0177c-1.7455 2.3721-1.7354 5.6175-6e-7 8.0354z" fill-rule="evenodd" transform="matrix(-1.1,0,0,-1.1,-1.1,0)" stroke="#000" stroke-width=".625"/>
  </marker>
 </defs>
 <g id="layer1" transform="translate(-1077.8 715.14)">
  <path id="rect4190-4-5-9" d="m1113.2-679.71h809.86v429.86h-809.86z" fill-rule="evenodd" fill="#e6e6e6"/>
  <path id="rect4190-4-0" d="m3022.6-679.71h809.86v429.86h-809.86z" fill-rule="evenodd" fill="#ececec"/>
  <g id="layer1-9-2" transform="matrix(4 0 0 4 20810 -27246)">
   <path id="path4271-5-9" d="m-4807.9 6700.5a15 15 0 0 1 -15 15 15 15 0 0 1 -15 -15 15 15 0 0 1 15 -15 15 15 0 0 1 15 15z" fill-rule="evenodd" fill="#333"/>
   <path id="path4138-0-1-4-1-1" d="m-4822.9 6684.5v3.0078a13 13 0 0 1 13 13 13 13 0 0 1 -13 13 13 13 0 0 1 -13 -13 13 13 0 0 1 0 -0.01h-3c0 8.8 7.152 16 16 16a16 16 0 0 0 16 -16 16 16 0 0 0 -16 -16z" fill="#fff"/>
   <path id="path4142-2-2" fill="#fff" d="m-4822.9 6703.6a3.15 3.15 0 0 1 -3.15 -3.15 3.15 3.15 0 0 1 3.15 -3.15 3.15 3.15 0 0 1 3.15 3.15 3.15 3.15 0 0 1 -3.15 3.15m6.687-2.277c0.036-0.288 0.063-0.576 0.063-0.873s-0.027-0.594-0.063-0.9l1.899-1.467c0.171-0.135 0.216-0.378 0.108-0.576l-1.8-3.114c-0.108-0.198-0.351-0.279-0.549-0.198l-2.241 0.9c-0.468-0.351-0.954-0.657-1.521-0.882l-0.333-2.385c-0.036-0.216-0.225-0.378-0.45-0.378h-3.6c-0.225 0-0.414 0.162-0.45 0.378l-0.333 2.385c-0.567 0.225-1.053 0.531-1.521 0.882l-2.241-0.9c-0.198-0.081-0.441 0-0.549 0.198l-1.8 3.114c-0.117 0.198-0.063 0.441 0.108 0.576l1.899 1.467c-0.036 0.306-0.063 0.603-0.063 0.9s0.027 0.585 0.063 0.873l-1.899 1.494c-0.171 0.135-0.225 0.378-0.108 0.576l1.8 3.114c0.108 0.198 0.351 0.27 0.549 0.198l2.241-0.909c0.468 0.36 0.954 0.666 1.521 0.891l0.333 2.385c0.036 0.216 0.225 0.378 0.45 0.378h3.6c0.225 0 0.414-0.162 0.45-0.378l0.333-2.385c0.567-0.234 1.053-0.531 1.521-0.891l2.241 0.909c0.198 0.072 0.441 0 0.549-0.198l1.8-3.114c0.108-0.198 0.063-0.441-0.108-0.576l-1.899-1.494z"/>
  </g>
  <g id="layer1-5-8" transform="matrix(4 0 0 4 22719 -27241)">
   <path id="path4271-6-2" d="m-4807.9 6700.5a15 15 0 0 1 -15 15 15 15 0 0 1 -15 -15 15 15 0 0 1 15 -15 15 15 0 0 1 15 15z" fill-rule="evenodd" fill="#333"/>
   <path id="path4138-0-1-4-6-3" d="m-4822.9 6684.5v3.0078a13 13 0 0 1 13 13 13 13 0 0 1 -13 13 13 13 0 0 1 -13 -13 13 13 0 0 1 0 -0.01h-3c0 8.8 7.152 16 16 16a16 16 0 0 0 16 -16 16 16 0 0 0 -16 -16z" fill="#fff"/>
   <path id="path4142-8-8" fill="#fff" d="m-4818.9 6702.3c0.072-0.594 0.126-1.188 0.126-1.8s-0.054-1.206-0.126-1.8h3.042c0.144 0.576 0.234 1.179 0.234 1.8s-0.09 1.224-0.234 1.8m-4.635 5.004c0.54-0.999 0.954-2.079 1.242-3.204h2.655c-0.864 1.485-2.241 2.637-3.897 3.204m-0.225-5.004h-4.212c-0.09-0.594-0.144-1.188-0.144-1.8s0.054-1.215 0.144-1.8h4.212c0.081 0.585 0.144 1.188 0.144 1.8s-0.063 1.206-0.144 1.8m-2.106 5.364c-0.747-1.08-1.35-2.277-1.719-3.564h3.438c-0.369 1.287-0.972 2.484-1.719 3.564m-3.6-10.764h-2.628c0.855-1.494 2.241-2.646 3.888-3.204-0.54 0.999-0.945 2.079-1.26 3.204m-2.628 7.2h2.628c0.315 1.125 0.72 2.205 1.26 3.204-1.647-0.567-3.033-1.719-3.888-3.204m-0.738-1.8c-0.144-0.576-0.234-1.179-0.234-1.8s0.09-1.224 0.234-1.8h3.042c-0.072 0.594-0.126 1.188-0.126 1.8s0.054 1.206 0.126 1.8m3.924-8.973c0.747 1.08 1.35 2.286 1.719 3.573h-3.438c0.369-1.287 0.972-2.493 1.719-3.573m6.228 3.573h-2.655c-0.288-1.125-0.702-2.205-1.242-3.204 1.656 0.567 3.033 1.71 3.897 3.204m-6.228-5.4c-4.977 0-9 4.05-9 9a9 9 0 0 0 9 9 9 9 0 0 0 9 -9 9 9 0 0 0 -9 -9z"/>
  </g>
  <g>
   <g id="text4663-96">
    <path id="path4334" style="" d="m3072.8-635.91q-4.2968 0-6.8359 3.2031-2.5195 3.2031-2.5195 8.7305 0 5.5078 2.5195 8.7109 2.5391 3.2031 6.8359 3.2031 4.2969 0 6.7969-3.2031 2.5196-3.2031 2.5196-8.7109 0-5.5274-2.5196-8.7305-2.5-3.2031-6.7969-3.2031zm0-3.2031q6.1329 0 9.8047 4.1211 3.6719 4.1016 3.6719 11.016 0 6.8945-3.6719 11.016-3.6718 4.1016-9.8047 4.1016-6.1523 0-9.8437-4.1016-3.6719-4.1016-3.6719-11.016 0-6.9141 3.6719-11.016 3.6914-4.1211 9.8437-4.1211zm1.836-6.8359h3.9648v3.9648h-3.9648v-3.9648zm-7.6367 0h3.9648v3.9648h-3.9648v-3.9648z"/>
    <path id="path4336" style="" d="m3116.9-639.82v2.9883h-3.4375q-1.9336 0-2.6953 0.78125-0.7422 0.78125-0.7422 2.8125v1.9336h5.918v2.793h-5.918v19.082h-3.6133v-19.082h-9.8632v19.082h-3.6133v-19.082h-3.4375v-2.793h3.4375v-1.5234q0-3.6523 1.6992-5.3125 1.6992-1.6797 5.3906-1.6797h3.3985v2.9883h-3.4375q-1.9336 0-2.6954 0.78125-0.7421 0.78125-0.7421 2.8125v1.9336h9.8632v-1.5234q0-3.6523 1.6993-5.3125 1.6992-1.6797 5.3906-1.6797h3.3984z"/>
    <path id="path4338" style="" d="m3138.6-621.26v1.7578h-16.523q0.2343 3.7109 2.2265 5.6641 2.0117 1.9336 5.586 1.9336 2.0703 0 4.0039-0.50781 1.9531-0.50782 3.8672-1.5234v3.3984q-1.9336 0.82031-3.9649 1.25-2.0312 0.42968-4.1211 0.42968-5.2344 0-8.3008-3.0469-3.0468-3.0469-3.0468-8.2422 0-5.3711 2.8906-8.5156 2.9101-3.1641 7.832-3.1641 4.4141 0 6.9727 2.8516 2.5781 2.832 2.5781 7.7148zm-3.5938-1.0547q-0.039-2.9492-1.6601-4.707-1.6016-1.7578-4.2578-1.7578-3.0078 0-4.8242 1.6992-1.7969 1.6992-2.0704 4.7852l12.812-0.0195z"/>
    <path id="path4340" style="" d="m3162.7-622.63v13.203h-3.5937v-13.086q0-3.1055-1.211-4.6484-1.2109-1.543-3.6328-1.543-2.9101 0-4.5898 1.8555t-1.6797 5.0586v12.363h-3.6133v-21.875h3.6133v3.3984q1.2891-1.9727 3.0273-2.9492 1.7579-0.97657 4.043-0.97657 3.7695 0 5.7031 2.3438 1.9336 2.3242 1.9336 6.8555z"/>
    <path id="path4342" style="" d="m3173.5-637.51v6.2109h7.4024v2.793h-7.4024v11.875q0 2.6758 0.7227 3.4375 0.7422 0.76172 2.9883 0.76172h3.6914v3.0078h-3.6914q-4.1602 0-5.7422-1.543-1.582-1.5625-1.582-5.6641v-11.875h-2.6368v-2.793h2.6368v-6.2109h3.6132z"/>
    <path id="path4344" style="" d="m3185.6-639.82h3.5937v30.391h-3.5937v-30.391z"/>
    <path id="path4346" style="" d="m3196.7-631.3h3.5938v21.875h-3.5938v-21.875zm0-8.5156h3.5938v4.5508h-3.5938v-4.5508z"/>
    <path id="path4348" style="" d="m3223.5-630.46v3.3594q-1.5235-0.83985-3.0664-1.25-1.5235-0.42969-3.086-0.42969-3.4961 0-5.4297 2.2266-1.9336 2.207-1.9336 6.2109t1.9336 6.2305q1.9336 2.207 5.4297 2.207 1.5625 0 3.086-0.41016 1.5429-0.42968 3.0664-1.2695v3.3203q-1.5039 0.70313-3.125 1.0547-1.6016 0.35156-3.418 0.35156-4.9414 0-7.8516-3.1055-2.9101-3.1055-2.9101-8.3789 0-5.3516 2.9297-8.418 2.9492-3.0664 8.0664-3.0664 1.6601 0 3.2422 0.35157 1.582 0.33203 3.0664 1.0156z"/>
    <path id="path4350" style="" d="m3248-622.63v13.203h-3.5937v-13.086q0-3.1055-1.211-4.6484-1.2109-1.543-3.6328-1.543-2.9101 0-4.5898 1.8555t-1.6797 5.0586v12.363h-3.6133v-30.391h3.6133v11.914q1.2891-1.9727 3.0273-2.9492 1.7579-0.97657 4.043-0.97657 3.7695 0 5.7031 2.3438 1.9336 2.3242 1.9336 6.8555z"/>
    <path id="path4352" style="" d="m3266.4-631.3h17.07v3.2812l-13.516 15.723h13.516v2.8711h-17.558v-3.2812l13.516-15.723h-13.027v-2.8711z"/>
    <path id="path4354" style="" d="m3288.6-618.06v-13.242h3.5937v13.105q0 3.1055 1.211 4.668 1.2109 1.543 3.6328 1.543 2.9101 0 4.5898-1.8555 1.6992-1.8555 1.6992-5.0586v-12.402h3.5938v21.875h-3.5938v-3.3594q-1.3086 1.9922-3.0468 2.9688-1.7188 0.95703-4.004 0.95703-3.7695 0-5.7226-2.3438t-1.9531-6.8555zm9.0429-13.77z"/>
    <path id="path4356" style="" d="m3328.8-620.62q0-3.9062-1.6211-6.0547-1.6015-2.1484-4.5117-2.1484-2.8906 0-4.5117 2.1484-1.6016 2.1484-1.6016 6.0547 0 3.8867 1.6016 6.0352 1.6211 2.1484 4.5117 2.1484 2.9102 0 4.5117-2.1484 1.6211-2.1484 1.6211-6.0352zm3.5938 8.4766q0 5.5859-2.4805 8.3008-2.4805 2.7344-7.5977 2.7344-1.8945 0-3.5742-0.29297-1.6797-0.27344-3.2617-0.85937v-3.4961q1.582 0.85938 3.125 1.2695 1.543 0.41016 3.1445 0.41016 3.5352 0 5.293-1.8555 1.7578-1.8359 1.7578-5.5664v-1.7774q-1.1133 1.9336-2.8515 2.8906-1.7383 0.95703-4.1602 0.95703-4.0234 0-6.4844-3.0664-2.4609-3.0664-2.4609-8.125 0-5.0781 2.4609-8.1445 2.461-3.0664 6.4844-3.0664 2.4219 0 4.1602 0.95704 1.7382 0.95703 2.8515 2.8906v-3.3203h3.5938v19.16z"/>
    <path id="path4358" style="" d="m3349.7-620.42q-4.3555 0-6.0351 0.9961-1.6797 0.99609-1.6797 3.3984 0 1.9141 1.25 3.0469 1.2695 1.1133 3.4375 1.1133 2.9883 0 4.7851-2.1094 1.8164-2.1289 1.8164-5.6445v-0.80079h-3.5742zm7.168-1.4844v12.48h-3.5938v-3.3203q-1.2304 1.9922-3.0664 2.9492-1.8359 0.9375-4.4922 0.9375-3.3593 0-5.3515-1.875-1.9727-1.8945-1.9727-5.0586 0-3.6914 2.461-5.5664 2.4804-1.875 7.3828-1.875h5.039v-0.35156q0-2.4805-1.6406-3.8281-1.6211-1.3672-4.5703-1.3672-1.875 0-3.6523 0.44922-1.7774 0.44922-3.418 1.3476v-3.3203q1.9726-0.76172 3.8281-1.1328 1.8555-0.39063 3.6133-0.39063 4.7461 0 7.0898 2.4609 2.3438 2.4609 2.3438 7.4609zm-7.4414-17.832h3.9648v3.9453h-3.9648v-3.9453zm-7.6367 0h3.9648v3.9453h-3.9648v-3.9453z"/>
    <path id="path4360" style="" d="m3382.5-622.63v13.203h-3.5938v-13.086q0-3.1055-1.2109-4.6484-1.211-1.543-3.6328-1.543-2.9102 0-4.5899 1.8555t-1.6797 5.0586v12.363h-3.6133v-21.875h3.6133v3.3984q1.2891-1.9727 3.0274-2.9492 1.7578-0.97657 4.0429-0.97657 3.7696 0 5.7032 2.3438 1.9336 2.3242 1.9336 6.8555z"/>
    <path id="path4362" style="" d="m3404.1-620.62q0-3.9062-1.6211-6.0547-1.6015-2.1484-4.5117-2.1484-2.8906 0-4.5117 2.1484-1.6016 2.1484-1.6016 6.0547 0 3.8867 1.6016 6.0352 1.6211 2.1484 4.5117 2.1484 2.9102 0 4.5117-2.1484 1.6211-2.1484 1.6211-6.0352zm3.5938 8.4766q0 5.5859-2.4805 8.3008-2.4805 2.7344-7.5977 2.7344-1.8945 0-3.5742-0.29297-1.6797-0.27344-3.2617-0.85937v-3.4961q1.582 0.85938 3.125 1.2695 1.543 0.41016 3.1445 0.41016 3.5352 0 5.293-1.8555 1.7578-1.8359 1.7578-5.5664v-1.7774q-1.1133 1.9336-2.8515 2.8906-1.7383 0.95703-4.1602 0.95703-4.0234 0-6.4844-3.0664-2.4609-3.0664-2.4609-8.125 0-5.0781 2.4609-8.1445 2.461-3.0664 6.4844-3.0664 2.4219 0 4.1602 0.95704 1.7382 0.95703 2.8515 2.8906v-3.3203h3.5938v19.16z"/>
    <path id="path4364" style="" d="m3415.1-639.82h3.5938v30.391h-3.5938v-30.391z"/>
    <path id="path4366" style="" d="m3426.2-631.3h3.5937v21.875h-3.5937v-21.875zm0-8.5156h3.5937v4.5508h-3.5937v-4.5508z"/>
    <path id="path4368" style="" d="m3453-630.46v3.3594q-1.5234-0.83985-3.0664-1.25-1.5234-0.42969-3.0859-0.42969-3.4961 0-5.4297 2.2266-1.9336 2.207-1.9336 6.2109t1.9336 6.2305q1.9336 2.207 5.4297 2.207 1.5625 0 3.0859-0.41016 1.543-0.42968 3.0664-1.2695v3.3203q-1.5039 0.70313-3.125 1.0547-1.6016 0.35156-3.418 0.35156-4.9414 0-7.8515-3.1055-2.9102-3.1055-2.9102-8.3789 0-5.3516 2.9297-8.418 2.9492-3.0664 8.0664-3.0664 1.6602 0 3.2422 0.35157 1.582 0.33203 3.0664 1.0156z"/>
    <path id="path4370" style="" d="m3477.5-622.63v13.203h-3.5938v-13.086q0-3.1055-1.2109-4.6484-1.211-1.543-3.6328-1.543-2.9102 0-4.5899 1.8555t-1.6797 5.0586v12.363h-3.6133v-30.391h3.6133v11.914q1.2891-1.9727 3.0274-2.9492 1.7578-0.97657 4.0429-0.97657 3.7696 0 5.7032 2.3438 1.9336 2.3242 1.9336 6.8555z"/>
    <path id="path4372" style="" d="m3503.4-621.26v1.7578h-16.523q0.2344 3.7109 2.2265 5.6641 2.0118 1.9336 5.586 1.9336 2.0703 0 4.0039-0.50781 1.9531-0.50782 3.8672-1.5234v3.3984q-1.9336 0.82031-3.9649 1.25-2.0312 0.42968-4.1211 0.42968-5.2343 0-8.3007-3.0469-3.0469-3.0469-3.0469-8.2422 0-5.3711 2.8906-8.5156 2.9102-3.1641 7.832-3.1641 4.4141 0 6.9727 2.8516 2.5781 2.832 2.5781 7.7148zm-3.5937-1.0547q-0.039-2.9492-1.6602-4.707-1.6015-1.7578-4.2578-1.7578-3.0078 0-4.8242 1.6992-1.7969 1.6992-2.0703 4.7852l12.812-0.0195z"/>
    <path id="path4374" style="" d="m3523.2-630.66v3.3984q-1.5235-0.78125-3.1641-1.1719-1.6406-0.39062-3.3984-0.39062-2.6758 0-4.0235 0.82031-1.3281 0.82031-1.3281 2.4609 0 1.25 0.957 1.9726 0.9571 0.70313 3.8477 1.3477l1.2305 0.27344q3.8281 0.82031 5.4297 2.3242 1.621 1.4844 1.621 4.1602 0 3.0469-2.4218 4.8242-2.4024 1.7773-6.6211 1.7773-1.7578 0-3.6719-0.35156-1.8945-0.33203-4.0039-1.0156v-3.7109q1.9922 1.0352 3.9258 1.5625 1.9336 0.50781 3.8281 0.50781 2.5391 0 3.9063-0.85937 1.3671-0.87891 1.3671-2.4609 0-1.4648-0.9961-2.2461-0.9765-0.78125-4.3164-1.5039l-1.25-0.29297q-3.3398-0.70312-4.8242-2.1484-1.4844-1.4648-1.4844-4.0039 0-3.0859 2.1875-4.7656t6.211-1.6797q1.9922 0 3.75 0.29297t3.2422 0.87891z"/>
    <path id="path4376" style="" d="m3543-638.59h5.3125l12.93 24.395v-24.395h3.8282v29.16h-5.3125l-12.93-24.395v24.395h-3.8281v-29.16z"/>
    <path id="path4378" style="" d="m3591.5-621.26v1.7578h-16.523q0.2344 3.7109 2.2265 5.6641 2.0118 1.9336 5.586 1.9336 2.0703 0 4.0039-0.50781 1.9531-0.50782 3.8672-1.5234v3.3984q-1.9336 0.82031-3.9649 1.25-2.0312 0.42968-4.1211 0.42968-5.2343 0-8.3007-3.0469-3.0469-3.0469-3.0469-8.2422 0-5.3711 2.8906-8.5156 2.9102-3.1641 7.832-3.1641 4.4141 0 6.9727 2.8516 2.5781 2.832 2.5781 7.7148zm-3.5937-1.0547q-0.039-2.9492-1.6602-4.707-1.6015-1.7578-4.2578-1.7578-3.0078 0-4.8242 1.6992-1.7969 1.6992-2.0703 4.7852l12.812-0.0195z"/>
    <path id="path4380" style="" d="m3601-637.51v6.2109h7.4024v2.793h-7.4024v11.875q0 2.6758 0.7227 3.4375 0.7422 0.76172 2.9883 0.76172h3.6914v3.0078h-3.6914q-4.1602 0-5.7422-1.543-1.582-1.5625-1.582-5.6641v-11.875h-2.6368v-2.793h2.6368v-6.2109h3.6132z"/>
    <path id="path4382" style="" d="m3611.5-631.3h17.07v3.2812l-13.516 15.723h13.516v2.8711h-17.559v-3.2812l13.516-15.723h-13.027v-2.8711z"/>
    <path id="path4384" style="" d="m3632-631.3h3.5937l4.4922 17.07 4.4727-17.07h4.2382l4.4922 17.07 4.4727-17.07h3.5937l-5.7226 21.875h-4.2383l-4.707-17.93-4.7266 17.93h-4.2383l-5.7226-21.875z"/>
    <path id="path4386" style="" d="m3685.6-621.26v1.7578h-16.523q0.2344 3.7109 2.2265 5.6641 2.0118 1.9336 5.586 1.9336 2.0703 0 4.0039-0.50781 1.9531-0.50782 3.8672-1.5234v3.3984q-1.9336 0.82031-3.9649 1.25-2.0312 0.42968-4.1211 0.42968-5.2343 0-8.3007-3.0469-3.0469-3.0469-3.0469-8.2422 0-5.3711 2.8906-8.5156 2.9102-3.1641 7.832-3.1641 4.4141 0 6.9727 2.8516 2.5781 2.832 2.5781 7.7148zm-3.5937-1.0547q-0.039-2.9492-1.6602-4.707-1.6015-1.7578-4.2578-1.7578-3.0078 0-4.8242 1.6992-1.7969 1.6992-2.0703 4.7852l12.812-0.0195z"/>
    <path id="path4388" style="" d="m3704.1-627.94q-0.6054-0.35156-1.3281-0.50781-0.7031-0.17578-1.5625-0.17578-3.0469 0-4.6875 1.9922-1.6211 1.9726-1.6211 5.6836v11.523h-3.6133v-21.875h3.6133v3.3984q1.1328-1.9922 2.9492-2.9492 1.8164-0.97657 4.4141-0.97657 0.3711 0 0.8203 0.0586 0.4492 0.0391 0.9961 0.13672l0.02 3.6914z"/>
    <path id="path4390" style="" d="m3707.8-639.82h3.6133v17.949l10.723-9.4336h4.5898l-11.602 10.234 12.09 11.641h-4.6875l-11.113-10.684v10.684h-3.6133v-30.391z"/>
   </g>
   <g id="text4663-9-5">
    <path id="path4393" style="" d="m1163-612.49-11.133-29.16h4.121l9.2383 24.551 9.2578-24.551h4.1016l-11.113 29.16h-4.4726z"/>
    <path id="path4395" style="" d="m1198.3-624.33v1.7578h-16.524q0.2344 3.7109 2.2266 5.6641 2.0117 1.9336 5.5859 1.9336 2.0703 0 4.0039-0.50781 1.9532-0.50781 3.8672-1.5234v3.3984q-1.9336 0.82031-3.9648 1.25-2.0313 0.42969-4.1211 0.42969-5.2344 0-8.3008-3.0469-3.0469-3.0469-3.0469-8.2422 0-5.3711 2.8907-8.5156 2.9101-3.1641 7.832-3.1641 4.4141 0 6.9726 2.8516 2.5782 2.832 2.5782 7.7148zm-3.5938-1.0547q-0.039-2.9492-1.6601-4.707-1.6016-1.7578-4.2578-1.7578-3.0079 0-4.8243 1.6992-1.7968 1.6992-2.0703 4.7852l12.812-0.0195z"/>
    <path id="path4397" style="" d="m1216.8-631.01q-0.6055-0.35157-1.3281-0.50782-0.7032-0.17578-1.5625-0.17578-3.0469 0-4.6875 1.9922-1.6211 1.9727-1.6211 5.6836v11.523h-3.6133v-21.875h3.6133v3.3984q1.1328-1.9922 2.9492-2.9492 1.8164-0.97656 4.4141-0.97656 0.371 0 0.8203 0.0586 0.4492 0.0391 0.9961 0.13672l0.019 3.6914z"/>
    <path id="path4399" style="" d="m1218.6-634.37h3.5938l4.4922 17.07 4.4726-17.07h4.2383l4.4922 17.07 4.4727-17.07h3.5937l-5.7226 21.875h-4.2383l-4.7071-17.93-4.7265 17.93h-4.2383l-5.7227-21.875z"/>
    <path id="path4401" style="" d="m1263.3-623.49q-4.3555 0-6.0352 0.99609-1.6797 0.9961-1.6797 3.3984 0 1.9141 1.25 3.0469 1.2696 1.1133 3.4375 1.1133 2.9883 0 4.7852-2.1094 1.8164-2.1289 1.8164-5.6445v-0.80078h-3.5742zm7.1679-1.4844v12.48h-3.5937v-3.3203q-1.2305 1.9922-3.0664 2.9492-1.836 0.9375-4.4922 0.9375-3.3594 0-5.3516-1.875-1.9726-1.8945-1.9726-5.0586 0-3.6914 2.4609-5.5664 2.4805-1.875 7.3828-1.875h5.0391v-0.35156q0-2.4805-1.6406-3.8281-1.6211-1.3672-4.5704-1.3672-1.875 0-3.6523 0.44922t-3.418 1.3477v-3.3203q1.9727-0.76172 3.8282-1.1328 1.8554-0.39062 3.6132-0.39062 4.7461 0 7.0899 2.4609 2.3437 2.4609 2.3437 7.4609z"/>
    <path id="path4403" style="" d="m1277.9-642.88h3.5938v30.391h-3.5938v-30.391z"/>
    <path id="path4405" style="" d="m1292.6-640.58v6.2109h7.4024v2.793h-7.4024v11.875q0 2.6758 0.7227 3.4375 0.7422 0.76172 2.9883 0.76172h3.6914v3.0078h-3.6914q-4.1602 0-5.7422-1.543-1.582-1.5625-1.582-5.6641v-11.875h-2.6368v-2.793h2.6368v-6.2109h3.6132z"/>
    <path id="path4407" style="" d="m1304.3-621.13v-13.242h3.5937v13.105q0 3.1055 1.211 4.668 1.2109 1.543 3.6328 1.543 2.9101 0 4.5898-1.8555 1.6993-1.8555 1.6993-5.0586v-12.402h3.5937v21.875h-3.5937v-3.3594q-1.3086 1.9922-3.0469 2.9688-1.7188 0.95703-4.0039 0.95703-3.7696 0-5.7227-2.3438t-1.9531-6.8555zm9.043-13.77z"/>
    <path id="path4409" style="" d="m1348.3-625.7v13.203h-3.5937v-13.086q0-3.1055-1.211-4.6484-1.2109-1.543-3.6328-1.543-2.9102 0-4.5898 1.8555-1.6797 1.8555-1.6797 5.0586v12.363h-3.6133v-21.875h3.6133v3.3984q1.289-1.9727 3.0273-2.9492 1.7578-0.97656 4.043-0.97656 3.7695 0 5.7031 2.3438 1.9336 2.3242 1.9336 6.8555z"/>
    <path id="path4411" style="" d="m1369.9-623.68q0-3.9062-1.6211-6.0547-1.6016-2.1484-4.5117-2.1484-2.8907 0-4.5118 2.1484-1.6015 2.1484-1.6015 6.0547 0 3.8867 1.6015 6.0352 1.6211 2.1484 4.5118 2.1484 2.9101 0 4.5117-2.1484 1.6211-2.1484 1.6211-6.0352zm3.5937 8.4766q0 5.5859-2.4805 8.3008-2.4804 2.7344-7.5976 2.7344-1.8945 0-3.5742-0.29296-1.6797-0.27344-3.2617-0.85938v-3.4961q1.582 0.85937 3.125 1.2695 1.5429 0.41015 3.1445 0.41015 3.5351 0 5.293-1.8555 1.7578-1.8359 1.7578-5.5664v-1.7773q-1.1133 1.9336-2.8516 2.8906-1.7383 0.95703-4.1602 0.95703-4.0234 0-6.4843-3.0664-2.461-3.0664-2.461-8.125 0-5.0781 2.461-8.1445 2.4609-3.0664 6.4843-3.0664 2.4219 0 4.1602 0.95703t2.8516 2.8906v-3.3203h3.5937v19.16z"/>
    <path id="path4413" style="" d="m1394.8-633.72v3.3984q-1.5235-0.78125-3.1641-1.1719-1.6406-0.39063-3.3984-0.39063-2.6758 0-4.0235 0.82031-1.3281 0.82032-1.3281 2.4609 0 1.25 0.957 1.9727 0.9571 0.70312 3.8477 1.3476l1.2305 0.27344q3.8281 0.82031 5.4297 2.3242 1.621 1.4844 1.621 4.1602 0 3.0469-2.4218 4.8242-2.4024 1.7774-6.6211 1.7774-1.7578 0-3.6719-0.35156-1.8945-0.33204-4.0039-1.0156v-3.7109q1.9922 1.0352 3.9258 1.5625 1.9336 0.50782 3.8281 0.50782 2.5391 0 3.9063-0.85938 1.3671-0.87891 1.3671-2.4609 0-1.4648-0.9961-2.2461-0.9765-0.78125-4.3164-1.5039l-1.25-0.29297q-3.3398-0.70312-4.8242-2.1484-1.4844-1.4648-1.4844-4.0039 0-3.0859 2.1875-4.7656t6.211-1.6797q1.9922 0 3.75 0.29297t3.2422 0.8789z"/>
    <path id="path4415" style="" d="m1419.9-625.7v13.203h-3.5937v-13.086q0-3.1055-1.211-4.6484-1.2109-1.543-3.6328-1.543-2.9101 0-4.5898 1.8555t-1.6797 5.0586v12.363h-3.6133v-21.875h3.6133v3.3984q1.2891-1.9727 3.0273-2.9492 1.7579-0.97656 4.043-0.97656 3.7695 0 5.7031 2.3438 1.9336 2.3242 1.9336 6.8555z"/>
    <path id="path4417" style="" d="m1445.8-624.33v1.7578h-16.523q0.2343 3.7109 2.2265 5.6641 2.0117 1.9336 5.586 1.9336 2.0703 0 4.0039-0.50781 1.9531-0.50781 3.8672-1.5234v3.3984q-1.9336 0.82031-3.9649 1.25-2.0312 0.42969-4.1211 0.42969-5.2344 0-8.3008-3.0469-3.0468-3.0469-3.0468-8.2422 0-5.3711 2.8906-8.5156 2.9101-3.1641 7.832-3.1641 4.4141 0 6.9727 2.8516 2.5781 2.832 2.5781 7.7148zm-3.5938-1.0547q-0.039-2.9492-1.6601-4.707-1.6016-1.7578-4.2578-1.7578-3.0078 0-4.8242 1.6992-1.7969 1.6992-2.0704 4.7852l12.812-0.0195z"/>
    <path id="path4419" style="" d="m1455.3-640.58v6.2109h7.4024v2.793h-7.4024v11.875q0 2.6758 0.7227 3.4375 0.7422 0.76172 2.9883 0.76172h3.6914v3.0078h-3.6914q-4.1602 0-5.7422-1.543-1.5821-1.5625-1.5821-5.6641v-11.875h-2.6367v-2.793h2.6367v-6.2109h3.6133z"/>
    <path id="path4421" style="" d="m1465.9-634.37h17.07v3.2812l-13.516 15.723h13.516v2.8711h-17.559v-3.2812l13.516-15.723h-13.027v-2.8711z"/>
    <path id="path4423" style="" d="m1486.4-634.37h3.5938l4.4922 17.07 4.4726-17.07h4.2383l4.4922 17.07 4.4727-17.07h3.5937l-5.7226 21.875h-4.2383l-4.7071-17.93-4.7265 17.93h-4.2383l-5.7227-21.875z"/>
    <path id="path4425" style="" d="m1539.9-624.33v1.7578h-16.523q0.2343 3.7109 2.2265 5.6641 2.0117 1.9336 5.586 1.9336 2.0703 0 4.0039-0.50781 1.9531-0.50781 3.8672-1.5234v3.3984q-1.9336 0.82031-3.9649 1.25-2.0312 0.42969-4.1211 0.42969-5.2344 0-8.3008-3.0469-3.0468-3.0469-3.0468-8.2422 0-5.3711 2.8906-8.5156 2.9101-3.1641 7.832-3.1641 4.4141 0 6.9727 2.8516 2.5781 2.832 2.5781 7.7148zm-3.5938-1.0547q-0.039-2.9492-1.6601-4.707-1.6016-1.7578-4.2578-1.7578-3.0078 0-4.8242 1.6992-1.7969 1.6992-2.0704 4.7852l12.812-0.0195z"/>
    <path id="path4427" style="" d="m1558.5-631.01q-0.6055-0.35157-1.3281-0.50782-0.7031-0.17578-1.5625-0.17578-3.0469 0-4.6875 1.9922-1.6211 1.9727-1.6211 5.6836v11.523h-3.6133v-21.875h3.6133v3.3984q1.1328-1.9922 2.9492-2.9492 1.8164-0.97656 4.4141-0.97656 0.3711 0 0.8203 0.0586 0.4492 0.0391 0.9961 0.13672l0.02 3.6914z"/>
    <path id="path4429" style="" d="m1562.2-642.88h3.6133v17.949l10.723-9.4336h4.5899l-11.602 10.234 12.09 11.641h-4.6875l-11.113-10.684v10.684h-3.6133v-30.391z"/>
   </g>
   <g id="text4663-9-0-9">
    <path id="path4432" style="" d="m1340.4-345.15v17.793h2.6954q4.6093 0 7.0312-2.2852 2.4414-2.2852 2.4414-6.6406 0-4.3359-2.4219-6.6016-2.4218-2.2656-7.0507-2.2656h-2.6954zm-7.5195-5.6836h7.9297q6.6406 0 9.8828 0.95703 3.2617 0.9375 5.586 3.2031 2.0507 1.9726 3.0468 4.5508 0.9961 2.5781 0.9961 5.8398 0 3.3008-0.9961 5.8984-0.9961 2.5781-3.0468 4.5508-2.3438 2.2656-5.625 3.2227-3.2813 0.9375-9.8438 0.9375h-7.9297v-29.16z"/>
    <path id="path4434" style="" d="m1383.8-326.99h-11.758l-1.8554 5.3125h-7.5586l10.801-29.16h8.9648l10.801 29.16h-7.5586l-1.8359-5.3125zm-9.8829-5.4102h7.9883l-3.9844-11.602-4.0039 11.602z"/>
    <path id="path4436" style="" d="m1390.8-350.83h7.5586l7.7344 21.523 7.7148-21.523h7.5586l-10.801 29.16h-8.9648l-10.801-29.16z"/>
    <path id="path4438" style="" d="m1425.2-350.83h7.5195v29.16h-7.5195v-29.16z"/>
    <path id="path4440" style="" d="m1440.1-350.83h8.3985l10.605 20v-20h7.129v29.16h-8.3985l-10.606-20v20h-7.1289v-29.16z"/>
    <path id="path4442" style="" d="m1496.8-323.28q-2.0703 1.0742-4.3164 1.6211-2.2461 0.54687-4.6875 0.54687-7.2852 0-11.543-4.0625-4.2578-4.082-4.2578-11.055 0-6.9922 4.2578-11.055 4.2578-4.082 11.543-4.082 2.4414 0 4.6875 0.54687 2.2461 0.54688 4.3164 1.6211v6.0352q-2.0899-1.4258-4.1211-2.0898-2.0313-0.66406-4.2774-0.66406-4.0234 0-6.3281 2.5781t-2.3047 7.1094q0 4.5117 2.3047 7.0898t6.3281 2.5781q2.2461 0 4.2774-0.66407 2.0312-0.66406 4.1211-2.0898v6.0352z"/>
    <path id="path4444" style="" d="m1503-350.83h7.5195v29.16h-7.5195v-29.16z"/>
    <path id="path4446" style="" d="m1552.2-349.92v6.1719q-2.4024-1.0742-4.6875-1.6211-2.2852-0.54687-4.3164-0.54687-2.6954 0-3.9844 0.74218-1.2891 0.74219-1.2891 2.3047 0 1.1719 0.8594 1.8359 0.8789 0.64453 3.1641 1.1133l3.2031 0.64453q4.8633 0.97656 6.914 2.9688 2.0508 1.9922 2.0508 5.6641 0 4.8242-2.8711 7.1875-2.8515 2.3438-8.7304 2.3438-2.7735 0-5.5664-0.52734-2.793-0.52734-5.586-1.5625v-6.3477q2.793 1.4844 5.3906 2.2461 2.6172 0.74219 5.0391 0.74219 2.4609 0 3.7695-0.82032 1.3086-0.82031 1.3086-2.3438 0-1.3672-0.8984-2.1094-0.8789-0.74219-3.5352-1.3281l-2.9101-0.64453q-4.375-0.9375-6.4063-2.9883-2.0117-2.0508-2.0117-5.5273 0-4.3555 2.8125-6.6992 2.8125-2.3438 8.0859-2.3438 2.4024 0 4.9415 0.37109 2.539 0.35156 5.2539 1.0742z"/>
    <path id="path4448" style="" d="m1560.7-350.83h20.293v5.6836h-12.774v5.4297h12.012v5.6836h-12.012v6.6797h13.203v5.6836h-20.723v-29.16z"/>
    <path id="path4450" style="" d="m1598.7-337.9q2.3632 0 3.3789-0.87891 1.0351-0.8789 1.0351-2.8906 0-1.9922-1.0351-2.8516-1.0157-0.85938-3.3789-0.85938h-3.1641v7.4805h3.1641zm-3.1641 5.1953v11.035h-7.5195v-29.16h11.484q5.7618 0 8.4375 1.9336 2.6954 1.9336 2.6954 6.1133 0 2.8906-1.4063 4.7461-1.3867 1.8555-4.1992 2.7344 1.543 0.35156 2.7539 1.6016 1.2305 1.2305 2.4805 3.75l4.082 8.2812h-8.0078l-3.5547-7.2461q-1.0742-2.1875-2.1875-2.9883-1.0938-0.80078-2.9297-0.80078h-2.1289z"/>
    <path id="path4452" style="" d="m1615.3-350.83h7.5585l7.7344 21.523 7.7149-21.523h7.5586l-10.801 29.16h-8.9649l-10.801-29.16z"/>
    <path id="path4454" style="" d="m1649.8-350.83h20.293v5.6836h-12.774v5.4297h12.012v5.6836h-12.012v6.6797h13.203v5.6836h-20.723v-29.16z"/>
    <path id="path4456" style="" d="m1687.8-337.9q2.3632 0 3.3789-0.87891 1.0351-0.8789 1.0351-2.8906 0-1.9922-1.0351-2.8516-1.0157-0.85938-3.3789-0.85938h-3.1641v7.4805h3.1641zm-3.1641 5.1953v11.035h-7.5195v-29.16h11.484q5.7618 0 8.4375 1.9336 2.6954 1.9336 2.6954 6.1133 0 2.8906-1.4063 4.7461-1.3867 1.8555-4.1992 2.7344 1.543 0.35156 2.7539 1.6016 1.2305 1.2305 2.4805 3.75l4.082 8.2812h-8.0078l-3.5547-7.2461q-1.0742-2.1875-2.1875-2.9883-1.0938-0.80078-2.9297-0.80078h-2.1289z"/>
   </g>
   <g id="text4663-9-0-5-3">
    <path id="path4459" style="" d="m3194.9-330.86v17.793h2.6953q4.6094 0 7.0313-2.2852 2.4414-2.2852 2.4414-6.6406 0-4.3359-2.4219-6.6016-2.4219-2.2656-7.0508-2.2656h-2.6953zm-7.5195-5.6836h7.9297q6.6406 0 9.8828 0.95703 3.2617 0.9375 5.5859 3.2031 2.0508 1.9727 3.0469 4.5508t0.9961 5.8398q0 3.3008-0.9961 5.8984-0.9961 2.5781-3.0469 4.5508-2.3437 2.2656-5.625 3.2226-3.2812 0.9375-9.8437 0.9375h-7.9297v-29.16z"/>
    <path id="path4461" style="" d="m3238.3-312.7h-11.758l-1.8554 5.3125h-7.5586l10.801-29.16h8.9649l10.801 29.16h-7.5586l-1.836-5.3125zm-9.8828-5.4102h7.9883l-3.9844-11.602-4.0039 11.602z"/>
    <path id="path4463" style="" d="m3245.3-336.55h7.5586l7.7344 21.523 7.7148-21.523h7.5586l-10.801 29.16h-8.9648l-10.801-29.16z"/>
    <path id="path4465" style="" d="m3279.8-336.55h7.5196v29.16h-7.5196v-29.16z"/>
    <path id="path4467" style="" d="m3294.7-336.55h8.3985l10.605 20v-20h7.1289v29.16h-8.3984l-10.606-20v20h-7.1289v-29.16z"/>
    <path id="path4469" style="" d="m3351.3-308.99q-2.0703 1.0742-4.3164 1.6211-2.2461 0.54688-4.6875 0.54688-7.2851 0-11.543-4.0625-4.2578-4.082-4.2578-11.055 0-6.9922 4.2578-11.055 4.2578-4.082 11.543-4.082 2.4414 0 4.6875 0.54688 2.2461 0.54687 4.3164 1.6211v6.0352q-2.0898-1.4258-4.121-2.0898-2.0313-0.66406-4.2774-0.66406-4.0234 0-6.3281 2.5781t-2.3047 7.1094q0 4.5117 2.3047 7.0898t6.3281 2.5781q2.2461 0 4.2774-0.66406 2.0312-0.66406 4.121-2.0898v6.0352z"/>
    <path id="path4471" style="" d="m3357.6-336.55h7.5196v29.16h-7.5196v-29.16z"/>
    <path id="path4473" style="" d="m3386.4-336.55h7.5195v29.16h-7.5195v-29.16z"/>
    <path id="path4475" style="" d="m3401.3-336.55h8.3985l10.606 20v-20h7.1289v29.16h-8.3985l-10.605-20v20h-7.129v-29.16z"/>
    <path id="path4477" style="" d="m3434.8-336.55h20.293v5.6836h-12.773v5.4297h12.012v5.6836h-12.012v12.363h-7.5195v-29.16z"/>
    <path id="path4479" style="" d="m3475.5-331.63q-3.4375 0-5.332 2.5391t-1.8945 7.1484q0 4.5898 1.8945 7.1289t5.332 2.5391q3.4571 0 5.3516-2.5391t1.8945-7.1289q0-4.6094-1.8945-7.1484-1.8945-2.5391-5.3516-2.5391zm0-5.4492q7.0313 0 11.016 4.0234 3.9843 4.0234 3.9843 11.113 0 7.0703-3.9843 11.094-3.9844 4.0234-11.016 4.0234-7.0117 0-11.016-4.0234-3.9844-4.0234-3.9844-11.094 0-7.0898 3.9844-11.113 4.0039-4.0234 11.016-4.0234z"/>
    <path id="path4481" style="" d="m3516.4-335.63v6.1719q-2.4024-1.0742-4.6875-1.6211-2.2852-0.54688-4.3164-0.54688-2.6954 0-3.9844 0.74219-1.2891 0.74219-1.2891 2.3047 0 1.1719 0.8594 1.8359 0.8789 0.64454 3.1641 1.1133l3.2031 0.64453q4.8633 0.97656 6.914 2.9688 2.0508 1.9922 2.0508 5.6641 0 4.8242-2.8711 7.1875-2.8515 2.3438-8.7304 2.3438-2.7735 0-5.5664-0.52734-2.793-0.52735-5.586-1.5625v-6.3477q2.793 1.4844 5.3906 2.2461 2.6172 0.74219 5.0391 0.74219 2.4609 0 3.7695-0.82031t1.3086-2.3438q0-1.3672-0.8984-2.1094-0.8789-0.74218-3.5352-1.3281l-2.9101-0.64453q-4.375-0.9375-6.4063-2.9883-2.0117-2.0508-2.0117-5.5274 0-4.3555 2.8125-6.6992 2.8125-2.3438 8.086-2.3438 2.4023 0 4.9414 0.3711 2.539 0.35156 5.2539 1.0742z"/>
    <path id="path4483" style="" d="m3525-336.55h20.293v5.6836h-12.773v5.4297h12.012v5.6836h-12.012v6.6797h13.203v5.6836h-20.723v-29.16z"/>
    <path id="path4485" style="" d="m3563-323.62q2.3632 0 3.3789-0.8789 1.0351-0.87891 1.0351-2.8906 0-1.9922-1.0351-2.8516-1.0157-0.85937-3.3789-0.85937h-3.1641v7.4805h3.1641zm-3.1641 5.1953v11.035h-7.5195v-29.16h11.484q5.7618 0 8.4375 1.9336 2.6954 1.9336 2.6954 6.1133 0 2.8906-1.4063 4.7461-1.3867 1.8555-4.1992 2.7344 1.543 0.35156 2.7539 1.6016 1.2305 1.2305 2.4805 3.75l4.082 8.2812h-8.0078l-3.5547-7.2461q-1.0742-2.1875-2.1875-2.9883-1.0938-0.80078-2.9297-0.80078h-2.1289z"/>
    <path id="path4487" style="" d="m3579.6-336.55h7.5586l7.7343 21.523 7.7149-21.523h7.5586l-10.801 29.16h-8.9649l-10.801-29.16z"/>
    <path id="path4489" style="" d="m3614-336.55h20.293v5.6836h-12.773v5.4297h12.012v5.6836h-12.012v6.6797h13.203v5.6836h-20.723v-29.16z"/>
    <path id="path4491" style="" d="m3652.1-323.62q2.3632 0 3.3789-0.8789 1.0351-0.87891 1.0351-2.8906 0-1.9922-1.0351-2.8516-1.0157-0.85937-3.3789-0.85937h-3.1641v7.4805h3.1641zm-3.1641 5.1953v11.035h-7.5195v-29.16h11.484q5.7618 0 8.4375 1.9336 2.6954 1.9336 2.6954 6.1133 0 2.8906-1.4063 4.7461-1.3867 1.8555-4.1992 2.7344 1.543 0.35156 2.7539 1.6016 1.2305 1.2305 2.4805 3.75l4.082 8.2812h-8.0078l-3.5547-7.2461q-1.0742-2.1875-2.1875-2.9883-1.0938-0.80078-2.9297-0.80078h-2.1289z"/>
   </g>
  </g>
  <path id="rect4190-4-0-1" d="m2067.9-679.71h809.86v429.86h-809.86z" fill-rule="evenodd" fill="#e6e6e6"/>
  <g>
   <g id="text4663-96-3">
    <path id="path4495" style="" d="m2113.4-638.11h16.758v3.3203h-12.812v8.5938h11.562v3.3203h-11.562v13.926h-3.9453v-29.16z"/>
    <path id="path4497" style="" d="m2131.7-638.11h24.668v3.3203h-10.352v25.84h-3.9649v-25.84h-10.352v-3.3203z"/>
    <path id="path4499" style="" d="m2164.2-634.87v10.957h4.9609q2.7539 0 4.2578-1.4258t1.5039-4.0625q0-2.6172-1.5039-4.043t-4.2578-1.4258h-4.9609zm-3.9454-3.2422h8.9063q4.9023 0 7.4023 2.2266 2.5196 2.207 2.5196 6.4844 0 4.3164-2.5196 6.5234-2.5 2.207-7.4023 2.207h-4.9609v11.719h-3.9454v-29.16z"/>
   </g>
   <g id="text4663-9-0-5-3-2">
    <path id="path4502" style="" d="m2350.5-345.12h20.293v5.6836h-12.773v5.4297h12.012v5.6836h-12.012v12.363h-7.5196v-29.16z"/>
    <path id="path4504" style="" d="m2374.4-345.12h26.875v5.6836h-9.668v23.477h-7.5195v-23.477h-9.6875v-5.6836z"/>
    <path id="path4506" style="" d="m2405.1-345.12h12.48q5.5664 0 8.5351 2.4805 2.9883 2.4609 2.9883 7.0312 0 4.5898-2.9883 7.0703-2.9687 2.4609-8.5351 2.4609h-4.961v10.117h-7.5195v-29.16zm7.5195 5.4492v8.1445h4.1602q2.1875 0 3.3789-1.0547 1.1914-1.0742 1.1914-3.0274 0-1.9531-1.1914-3.0078t-3.3789-1.0547h-4.1602z"/>
    <path id="path4508" style="" d="m2432.2-330.32h12.266v5.6836h-12.266v-5.6836z"/>
    <path id="path4510" style="" d="m2470.7-344.2v6.1719q-2.4023-1.0742-4.6875-1.6211-2.2851-0.54688-4.3164-0.54688-2.6953 0-3.9843 0.74219-1.2891 0.74219-1.2891 2.3047 0 1.1719 0.8594 1.8359 0.8789 0.64453 3.164 1.1133l3.2032 0.64454q4.8632 0.97656 6.914 2.9688t2.0508 5.6641q0 4.8242-2.8711 7.1875-2.8515 2.3438-8.7305 2.3438-2.7734 0-5.5664-0.52735-2.7929-0.52734-5.5859-1.5625v-6.3476q2.793 1.4844 5.3906 2.2461 2.6172 0.74219 5.0391 0.74219 2.4609 0 3.7695-0.82031 1.3086-0.82032 1.3086-2.3438 0-1.3672-0.8984-2.1094-0.8789-0.74219-3.5352-1.3281l-2.9101-0.64453q-4.375-0.9375-6.4063-2.9883-2.0117-2.0508-2.0117-5.5273 0-4.3555 2.8125-6.6992 2.8125-2.3438 8.0859-2.3438 2.4024 0 4.9414 0.3711 2.5391 0.35156 5.2539 1.0742z"/>
    <path id="path4512" style="" d="m2500.7-326.96v1.9922h-16.348q0.2539 2.4609 1.7773 3.6914 1.5235 1.2305 4.2578 1.2305 2.2071 0 4.5118-0.64453 2.3242-0.66406 4.7656-1.9922v5.3906q-2.4805 0.9375-4.961 1.4062-2.4804 0.48828-4.9609 0.48828-5.9375 0-9.2383-3.0078-3.2812-3.0274-3.2812-8.4766 0-5.3516 3.2226-8.418 3.2422-3.0664 8.9063-3.0664 5.1562 0 8.2422 3.1055 3.1054 3.1055 3.1054 8.3008zm-7.1875-2.3242q0-1.9922-1.1718-3.2031-1.1524-1.2305-3.0274-1.2305-2.0312 0-3.3008 1.1523-1.2695 1.1328-1.582 3.2812h9.082z"/>
    <path id="path4514" style="" d="m2522.2-331.88q-0.918-0.42968-1.836-0.625-0.8984-0.21484-1.8164-0.21484-2.6953 0-4.1601 1.7383-1.4453 1.7188-1.4453 4.9414v10.078h-6.9922v-21.875h6.9922v3.5938q1.3476-2.1484 3.0859-3.125 1.7578-0.99609 4.1992-0.99609 0.3516 0 0.7617 0.0391 0.4102 0.0195 1.1914 0.11719l0.02 6.3281z"/>
    <path id="path4516" style="" d="m2523-337.83h6.9922l5.4492 15.117 5.4297-15.117h7.0117l-8.6133 21.875h-7.6758l-8.5937-21.875z"/>
    <path id="path4518" style="" d="m2573.7-326.96v1.9922h-16.348q0.2539 2.4609 1.7774 3.6914 1.5234 1.2305 4.2578 1.2305 2.207 0 4.5117-0.64453 2.3242-0.66406 4.7656-1.9922v5.3906q-2.4804 0.9375-4.9609 1.4062-2.4805 0.48828-4.9609 0.48828-5.9375 0-9.2383-3.0078-3.2813-3.0274-3.2813-8.4766 0-5.3516 3.2227-8.418 3.2422-3.0664 8.9062-3.0664 5.1563 0 8.2422 3.1055 3.1055 3.1055 3.1055 8.3008zm-7.1875-2.3242q0-1.9922-1.1719-3.2031-1.1523-1.2305-3.0273-1.2305-2.0313 0-3.3008 1.1523-1.2695 1.1328-1.582 3.2812h9.082z"/>
    <path id="path4520" style="" d="m2595.2-331.88q-0.9179-0.42968-1.8359-0.625-0.8984-0.21484-1.8164-0.21484-2.6953 0-4.1602 1.7383-1.4453 1.7188-1.4453 4.9414v10.078h-6.9922v-21.875h6.9922v3.5938q1.3477-2.1484 3.086-3.125 1.7578-0.99609 4.1992-0.99609 0.3515 0 0.7617 0.0391 0.4101 0.0195 1.1914 0.11719l0.019 6.3281z"/>
   </g>
   <path id="path4215-4" marker-end="url(#Arrow2Lend-9)" d="m1660.3-439.07h661.34" fill-rule="evenodd" marker-start="url(#StopS)" stroke="#000" stroke-width="4"/>
   <path id="path4215-4-7" marker-end="url(#Arrow2Lend-9-5)" d="m2637.7-439.07h661.34" fill-rule="evenodd" marker-start="url(#StopS-1)" stroke="#000" stroke-width="4"/>
  </g>
  <path id="path4320" d="m2500.8-431.67c0.512-4.224 0.896-8.448 0.896-12.8s-0.384-8.576-0.896-12.8h21.632c1.024 4.096 1.664 8.384 1.664 12.8s-0.64 8.704-1.664 12.8m-32.96 35.584c3.84-7.104 6.784-14.784 8.832-22.784h18.88c-6.144 10.56-15.936 18.752-27.712 22.784m-1.6-35.584h-29.952c-0.64-4.224-1.024-8.448-1.024-12.8s0.384-8.64 1.024-12.8h29.952c0.576 4.16 1.024 8.448 1.024 12.8s-0.448 8.576-1.024 12.8m-14.976 38.144c-5.312-7.68-9.6-16.192-12.224-25.344h24.448c-2.624 9.152-6.912 17.664-12.224 25.344m-25.6-76.544h-18.688c6.08-10.624 15.936-18.816 27.648-22.784-3.84 7.104-6.72 14.784-8.96 22.784m-18.688 51.2h18.688c2.24 8 5.12 15.68 8.96 22.784-11.712-4.032-21.568-12.224-27.648-22.784m-5.248-12.8c-1.024-4.096-1.664-8.384-1.664-12.8s0.64-8.704 1.664-12.8h21.632c-0.512 4.224-0.896 8.448-0.896 12.8s0.384 8.576 0.896 12.8m27.904-63.808c5.312 7.68 9.6 16.256 12.224 25.408h-24.448c2.624-9.152 6.912-17.728 12.224-25.408m44.288 25.408h-18.88c-2.048-8-4.992-15.68-8.832-22.784 11.776 4.032 21.568 12.16 27.712 22.784m-44.288-38.4c-35.392 0-64 28.8-64 64a64 64 0 0 0 64 64 64 64 0 0 0 64 -64 64 64 0 0 0 -64 -64z"/>
 </g>
</svg>
