<?xml version="1.0" encoding="UTF-8" standalone="no"?>
<svg
   xmlns:dc="http://purl.org/dc/elements/1.1/"
   xmlns:cc="http://creativecommons.org/ns#"
   xmlns:rdf="http://www.w3.org/1999/02/22-rdf-syntax-ns#"
   xmlns:svg="http://www.w3.org/2000/svg"
   xmlns="http://www.w3.org/2000/svg"
   xmlns:sodipodi="http://sodipodi.sourceforge.net/DTD/sodipodi-0.dtd"
   xmlns:inkscape="http://www.inkscape.org/namespaces/inkscape"
   height="32"
   viewBox="0 0 21.333333 21.333333"
   width="32"
   id="svg2"
   version="1.1"
   inkscape:version="0.91 r13725"
   sodipodi:docname="intro-b.svg"
   style="fill:#000000">
  <metadata
     id="metadata12">
    <rdf:RDF>
      <cc:Work
         rdf:about="">
        <dc:format>image/svg+xml</dc:format>
        <dc:type
           rdf:resource="http://purl.org/dc/dcmitype/StillImage" />
        <dc:title></dc:title>
      </cc:Work>
    </rdf:RDF>
  </metadata>
  <defs
     id="defs10" />
  <sodipodi:namedview
     pagecolor="#ffffff"
     bordercolor="#666666"
     borderopacity="1"
     objecttolerance="10"
     gridtolerance="10"
     guidetolerance="10"
     inkscape:pageopacity="0"
     inkscape:pageshadow="2"
     inkscape:window-width="1380"
     inkscape:window-height="949"
     id="namedview8"
     showgrid="false"
     inkscape:zoom="6.5555556"
     inkscape:cx="46.246426"
     inkscape:cy="22.080712"
     inkscape:window-x="0"
     inkscape:window-y="0"
     inkscape:window-maximized="0"
     inkscape:current-layer="svg2" />
  <path
     d="m 0,-2.6666667 24,0 0,23.9999997 -24,0 z"
     id="path4"
     inkscape:connector-curvature="0"
     style="fill:none" />
  <rect
     style="opacity:1;fill:none;fill-opacity:1;fill-rule:nonzero;stroke:#000000;stroke-width:1.36813068;stroke-linejoin:round;stroke-miterlimit:4;stroke-dasharray:none;stroke-opacity:1"
     id="rect4140"
     width="14.181732"
     height="14.181733"
     x="3.6047862"
     y="2.3813734" />
  <path
     d="m 16.686155,1.6977395 -12.0338986,0 c -0.9455206,0 -1.7191283,0.773608 -1.7191283,1.719129 l 0,12.0338985 c 0,0.945521 0.7736077,1.719129 1.7191283,1.719129 l 3.4382569,0 2.5786927,2.578692 2.578692,-2.578692 3.438257,0 c 0.94552,0 1.719128,-0.773608 1.719128,-1.719129 l 0,-12.0338985 c 0,-0.945521 -0.773608,-1.719129 -1.719128,-1.719129 z m -4.400969,9.3520585 -1.61598,3.541405 -1.6159817,-3.541405 -3.5414042,-1.6159809 3.5414042,-1.615981 1.6159817,-3.541404 1.61598,3.541404 3.541405,1.615981 -3.541405,1.6159809 z"
     id="path6"
     inkscape:connector-curvature="0"
     style="fill:#000000" />
</svg>
