<?xml version="1.0" encoding="UTF-8" standalone="no"?>
<!-- Created with Inkscape (http://www.inkscape.org/) -->

<svg
   xmlns:dc="http://purl.org/dc/elements/1.1/"
   xmlns:cc="http://creativecommons.org/ns#"
   xmlns:rdf="http://www.w3.org/1999/02/22-rdf-syntax-ns#"
   xmlns:svg="http://www.w3.org/2000/svg"
   xmlns="http://www.w3.org/2000/svg"
   xmlns:sodipodi="http://sodipodi.sourceforge.net/DTD/sodipodi-0.dtd"
   xmlns:inkscape="http://www.inkscape.org/namespaces/inkscape"
   width="32"
   height="32"
   viewBox="0 0 32.000002 32"
   id="svg5867"
   version="1.1"
   inkscape:version="0.91 r13725"
   sodipodi:docname="info-b.svg"
   inkscape:export-filename="C:\Users\matthias.STUEBER\Pictures\Icons\application\showtime-player.png"
   inkscape:export-xdpi="640"
   inkscape:export-ydpi="640">
  <defs
     id="defs5869" />
  <sodipodi:namedview
     id="base"
     pagecolor="#ffffff"
     bordercolor="#666666"
     borderopacity="1.0"
     inkscape:pageopacity="0.0"
     inkscape:pageshadow="2"
     inkscape:zoom="11.313708"
     inkscape:cx="11.609117"
     inkscape:cy="16.651324"
     inkscape:document-units="px"
     inkscape:current-layer="layer1"
     showgrid="true"
     units="px"
     inkscape:window-width="1920"
     inkscape:window-height="1017"
     inkscape:window-x="-8"
     inkscape:window-y="-8"
     inkscape:window-maximized="1">
    <inkscape:grid
       type="xygrid"
       id="grid6435" />
  </sodipodi:namedview>
  <metadata
     id="metadata5872">
    <rdf:RDF>
      <cc:Work
         rdf:about="">
        <dc:format>image/svg+xml</dc:format>
        <dc:type
           rdf:resource="http://purl.org/dc/dcmitype/StillImage" />
        <dc:title></dc:title>
      </cc:Work>
    </rdf:RDF>
  </metadata>
  <g
     inkscape:label="Ebene 1"
     inkscape:groupmode="layer"
     id="layer1"
     transform="translate(0,-1020.3622)">
    <path
       style="fill:none"
       inkscape:connector-curvature="0"
       d="m -37.750005,1017.7372 36.000005,0 0,36 -36.000005,0 z"
       id="path8107-2" />
    <g
       style="fill:#000000"
       id="g4186"
       transform="matrix(1.3950391,0,0,1.395039,-0.79917669,1019.7322)">
      <path
         id="path4176"
         d="M 0,0 24,0 24,24 0,24 Z"
         inkscape:connector-curvature="0"
         style="fill:none" />
      <path
         id="path4178"
         d="m 11,17 2,0 0,-6 -2,0 0,6 z M 12,2 C 6.48,2 2,6.48 2,12 2,17.52 6.48,22 12,22 17.52,22 22,17.52 22,12 22,6.48 17.52,2 12,2 Z m 0,18 C 7.59,20 4,16.41 4,12 4,7.59 7.59,4 12,4 c 4.41,0 8,3.59 8,8 0,4.41 -3.59,8 -8,8 z m -1,-11 2,0 0,-2 -2,0 0,2 z"
         inkscape:connector-curvature="0" />
    </g>
  </g>
</svg>
