<?xml version="1.0" encoding="UTF-8" standalone="no"?>
<!-- Created with Inkscape (http://www.inkscape.org/) -->

<svg
   xmlns:dc="http://purl.org/dc/elements/1.1/"
   xmlns:cc="http://creativecommons.org/ns#"
   xmlns:rdf="http://www.w3.org/1999/02/22-rdf-syntax-ns#"
   xmlns:svg="http://www.w3.org/2000/svg"
   xmlns="http://www.w3.org/2000/svg"
   xmlns:sodipodi="http://sodipodi.sourceforge.net/DTD/sodipodi-0.dtd"
   xmlns:inkscape="http://www.inkscape.org/namespaces/inkscape"
   width="32"
   height="32"
   viewBox="0 0 32.000002 32"
   id="svg5867"
   version="1.1"
   inkscape:version="0.91 r13725"
   sodipodi:docname="settings-b.svg"
   inkscape:export-filename="C:\Users\matthias.STUEBER\Pictures\Icons\application\showtime-player.png"
   inkscape:export-xdpi="640"
   inkscape:export-ydpi="640">
  <defs
     id="defs5869" />
  <sodipodi:namedview
     id="base"
     pagecolor="#ffffff"
     bordercolor="#666666"
     borderopacity="1.0"
     inkscape:pageopacity="0.0"
     inkscape:pageshadow="2"
     inkscape:zoom="5.6568543"
     inkscape:cx="-25.940046"
     inkscape:cy="20.435367"
     inkscape:document-units="px"
     inkscape:current-layer="g4168"
     showgrid="true"
     units="px"
     inkscape:window-width="1920"
     inkscape:window-height="1017"
     inkscape:window-x="-8"
     inkscape:window-y="-8"
     inkscape:window-maximized="1">
    <inkscape:grid
       type="xygrid"
       id="grid6435" />
  </sodipodi:namedview>
  <metadata
     id="metadata5872">
    <rdf:RDF>
      <cc:Work
         rdf:about="">
        <dc:format>image/svg+xml</dc:format>
        <dc:type
           rdf:resource="http://purl.org/dc/dcmitype/StillImage" />
        <dc:title></dc:title>
      </cc:Work>
    </rdf:RDF>
  </metadata>
  <g
     inkscape:label="Ebene 1"
     inkscape:groupmode="layer"
     id="layer1"
     transform="translate(0,-1020.3622)">
    <path
       style="fill:none"
       inkscape:connector-curvature="0"
       d="m -0.06979305,1016.6845 36.00000505,0 0,36 -36.00000505,0 z"
       id="path8107" />
    <path
       style="color:#000000;display:inline;overflow:visible;visibility:visible;fill:#ffffff;fill-opacity:1;fill-rule:nonzero;stroke:none;stroke-width:1;stroke-linecap:butt;stroke-linejoin:miter;stroke-miterlimit:4;stroke-dasharray:none;stroke-dashoffset:0;stroke-opacity:1;marker:none;enable-background:accumulate"
       d="m 24.994899,1048.4 c 0.05162,-28.9832 0.05162,-28.9832 0.05162,-28.9832 l -16.0652878,14.5538 z"
       id="path8225"
       inkscape:connector-curvature="0" />
    <path
       style="fill:none"
       inkscape:connector-curvature="0"
       d="m -37.750005,1017.7372 36.000005,0 0,36 -36.000005,0 z"
       id="path8107-2" />
    <g
       style="fill:#000000"
       id="g4168"
       transform="matrix(1.5000002,0,0,1.5000002,9.4575658e-8,1016.7372)">
      <path
         id="path4158"
         d="M 0,0 24,0 24,24 0,24 Z"
         inkscape:connector-curvature="0"
         style="fill:none" />
      <path
         id="path4160"
         d="m 17.93,14.063334 c 0.04,-0.32 0.07,-0.64 0.07,-0.98 0,-0.34 -0.03,-0.66 -0.07,-0.98 l 2.11,-1.65 c 0.19,-0.15 0.24,-0.420001 0.12,-0.6400006 l -2,-3.46 c -0.12,-0.22 -0.39,-0.3 -0.61,-0.22 l -2.49,1 c -0.52,-0.4 -1.08,-0.73 -1.69,-0.98 l -0.38,-2.65 c -0.03,-0.24 -0.24,-0.42 -0.49,-0.42 l -4.0000001,0 c -0.25,0 -0.46,0.18 -0.49,0.42 l -0.38,2.65 c -0.61,0.25 -1.17,0.59 -1.69,0.98 l -2.49,-1 c -0.23,-0.09 -0.49,0 -0.61,0.22 l -1.99999997,3.46 c -0.13,0.2199996 -0.07,0.4900006 0.12,0.6400006 l 2.10999997,1.65 c -0.04,0.32 -0.07,0.65 -0.07,0.98 0,0.33 0.03,0.66 0.07,0.98 l -2.10999997,1.65 c -0.19,0.15 -0.24,0.42 -0.12,0.64 l 1.99999997,3.46 c 0.12,0.22 0.39,0.3 0.61,0.22 l 2.49,-1 c 0.52,0.4 1.08,0.73 1.69,0.98 l 0.38,2.65 c 0.03,0.24 0.24,0.42 0.49,0.42 l 4.0000001,0 c 0.25,0 0.46,-0.18 0.49,-0.42 l 0.38,-2.65 c 0.61,-0.25 1.17,-0.59 1.69,-0.98 l 2.49,1 c 0.23,0.09 0.49,0 0.61,-0.22 l 2,-3.46 c 0.12,-0.22 0.07,-0.49 -0.12,-0.64 l -2.11,-1.65 z m -7.43,2.52 c -1.9300001,0 -3.5000001,-1.57 -3.5000001,-3.5 0,-1.93 1.57,-3.5000006 3.5000001,-3.5000006 1.93,0 3.5,1.5700006 3.5,3.5000006 0,1.93 -1.57,3.5 -3.5,3.5 z"
         inkscape:connector-curvature="0" />
    </g>
  </g>
</svg>
